<?xml version="1.0" encoding="UTF-8" standalone="no"?>
<!-- Licensed as CC0 Public Domain Dedication, see https://creativecommons.org/publicdomain/zero/1.0/. -->

<svg
   xmlns:ns="http://creativecommons.org/"
   xmlns:dc="http://purl.org/dc/elements/1.1/"
   xmlns:cc="http://creativecommons.org/ns#"
   xmlns:rdf="http://www.w3.org/1999/02/22-rdf-syntax-ns#"
   xmlns:svg="http://www.w3.org/2000/svg"
   xmlns="http://www.w3.org/2000/svg"
   xmlns:sodipodi="http://sodipodi.sourceforge.net/DTD/sodipodi-0.dtd"
   xmlns:inkscape="http://www.inkscape.org/namespaces/inkscape"
   version="1.1"
   x="0px"
   y="0px"
   width="300"
   height="300"
   viewBox="0 0 300 300"
   xml:space="preserve"
   id="svg11"
   sodipodi:docname="robotbody.svg"
   inkscape:version="0.92.2 5c3e80d, 2017-08-06"><metadata
     id="metadata17"><rdf:RDF><ns:Work
         rdf:about=""><dc:format>image/svg+xml</dc:format><dc:type
           rdf:resource="http://purl.org/dc/dcmitype/StillImage" /></ns:Work><cc:Work
         rdf:about=""><dc:format>image/svg+xml</dc:format><dc:type
           rdf:resource="http://purl.org/dc/dcmitype/StillImage" /><dc:title></dc:title></cc:Work></rdf:RDF></metadata><defs
     id="defs15" /><sodipodi:namedview
     pagecolor="#ffffff"
     bordercolor="#666666"
     borderopacity="1"
     objecttolerance="10"
     gridtolerance="10"
     guidetolerance="10"
     inkscape:pageopacity="0"
     inkscape:pageshadow="2"
     inkscape:window-width="1440"
     inkscape:window-height="856"
     id="namedview13"
     showgrid="false"
     inkscape:zoom="1.5742187"
     inkscape:cx="256.30163"
     inkscape:cy="178.12937"
     inkscape:window-x="2"
     inkscape:window-y="0"
     inkscape:window-maximized="0"
     inkscape:current-layer="svg11"
     showguides="true"
     inkscape:guide-bbox="true"
     inkscape:snap-center="true"
     inkscape:snap-page="true"
     inkscape:snap-global="false"><sodipodi:guide
       position="150.55087,314.4417"
       orientation="1,0"
       id="guide863"
       inkscape:locked="false" /><sodipodi:guide
       position="150,150"
       orientation="0,1"
       id="guide867"
       inkscape:locked="false" /></sodipodi:namedview><path
     id="robotbody"
     d="m 100.69022,274.97186 c 38.07533,29.40707 89.30433,29.2031 124.8794,-1.1263 33.20432,-28.30817 41.60047,-96.21693 9.08347,-129.03415 3.07228,-20.97597 4.02195,-22.33436 -5.90513,-28.5988 -8.02021,-5.06112 -25.70583,4.86652 -28.06416,4.67439 -30.33143,-2.47109 -67.4846,-1.21949 -83.75854,2.03551 -4.27227,0.8545 -15.30904,-15.72301 -25.723989,-6.75115 -11.428986,9.84535 4.306035,22.40702 1.382453,24.73694 -28.024818,22.33384 -39.116551,97.59135 8.106496,134.06356 z"
     inkscape:connector-curvature="0"
     sodipodi:nodetypes="sscssssss"
     style="stroke-width:0.99999988" /><path
     style="fill:#000000;stroke:#000000;stroke-width:1.56907034px;stroke-linecap:butt;stroke-linejoin:miter;stroke-opacity:1"
     d="M 101.73143,113.66641 C 94.417433,98.288768 86.023549,78.72988 82.419282,65.473314 81.687951,52.279478 74.323541,41.432302 80.537822,30.224082 81.535645,24.563504 93.486177,27.398036 105.74247,26.0289 102.81114,16.346114 97.026808,5.3600882 92.787985,1.9776882 59.91672,5.6836412 73.743447,2.5106732 64.24445,12.18567 c -5.358132,18.568062 -6.306034,39.657722 -4.130646,62.53316 3.839712,23.162534 14.254522,40.31005 27.481883,54.88459 l -3.596134,-4.00641 7.139631,6.23348"
     id="path9"
     inkscape:connector-curvature="0"
     sodipodi:nodetypes="cccccccccc" /><path
     style="fill:#000000;stroke:#000000;stroke-width:1.0453254px;stroke-linecap:butt;stroke-linejoin:miter;stroke-opacity:1"
     d="m 218.52271,115.15296 c 4.63933,-3.85073 12.75819,-6.03336 17.39753,-8.23699 5.26138,-0.42713 9.56426,0.45481 11.13443,5.06892 1.66749,3.16807 -2.15024,5.70253 -4.17541,8.8706 -6.04544,8.28449 -9.35865,12.19741 -6.95901,6.96976 v 3.17942"
     id="path11"
     inkscape:connector-curvature="0"
     sodipodi:nodetypes="cccccc" /></svg>