<?xml version="1.0" encoding="UTF-8" standalone="no"?>
<svg
   xmlns:ns="http://creativecommons.org/"
   xmlns:dc="http://purl.org/dc/elements/1.1/"
   xmlns:cc="http://creativecommons.org/ns#"
   xmlns:rdf="http://www.w3.org/1999/02/22-rdf-syntax-ns#"
   xmlns:svg="http://www.w3.org/2000/svg"
   xmlns="http://www.w3.org/2000/svg"
   id="svg11"
   xml:space="preserve"
   viewBox="0 0 300 300"
   height="300"
   width="300"
   y="0px"
   x="0px"
   version="1.1"><metadata
     id="metadata17"><rdf:RDF><ns:Work
         rdf:about=""><dc:format>image/svg+xml</dc:format><dc:type
           rdf:resource="http://purl.org/dc/dcmitype/StillImage" /></ns:Work><cc:Work
         rdf:about=""><dc:format>image/svg+xml</dc:format><dc:type
           rdf:resource="http://purl.org/dc/dcmitype/StillImage" /><dc:title></dc:title></cc:Work></rdf:RDF></metadata><defs
     id="defs15" /><path
     style="stroke-width:0.99999988"
     d="m 100.69022,274.97186 c 38.07533,29.40707 89.30433,29.2031 124.8794,-1.1263 33.20432,-28.30817 41.60047,-96.21693 9.08347,-129.03415 3.07228,-20.97597 4.02195,-22.33436 -5.90513,-28.5988 -8.02021,-5.06112 -25.70583,4.86652 -28.06416,4.67439 -30.33143,-2.47109 -67.4846,-1.21949 -83.75854,2.03551 -4.27227,0.8545 -15.30904,-15.72301 -25.723989,-6.75115 -11.428986,9.84535 4.306035,22.40702 1.382453,24.73694 -28.024818,22.33384 -39.116551,97.59135 8.106496,134.06356 z"
     id="robotbody" /><path
     id="path9"
     d="M 101.73143,113.66641 C 94.417433,98.288768 86.023549,78.72988 82.419282,65.473314 81.687951,52.279478 74.323541,41.432302 80.537822,30.224082 81.535645,24.563504 93.486177,27.398036 105.74247,26.0289 102.81114,16.346114 97.026808,5.3600882 92.787985,1.9776882 59.91672,5.6836412 73.743447,2.5106732 64.24445,12.18567 c -5.358132,18.568062 -6.306034,39.657722 -4.130646,62.53316 3.839712,23.162534 14.254522,40.31005 27.481883,54.88459 l -3.596134,-4.00641 7.139631,6.23348"
     style="fill:#000000;stroke:#000000;stroke-width:1.56907034px;stroke-linecap:butt;stroke-linejoin:miter;stroke-opacity:1" /><path
     id="path11"
     d="m 218.52271,115.15296 c 4.63933,-3.85073 12.75819,-6.03336 17.39753,-8.23699 5.26138,-0.42713 9.56426,0.45481 11.13443,5.06892 1.66749,3.16807 -2.15024,5.70253 -4.17541,8.8706 -6.04544,8.28449 -9.35865,12.19741 -6.95901,6.96976 v 3.17942"
     style="fill:#000000;stroke:#000000;stroke-width:1.0453254px;stroke-linecap:butt;stroke-linejoin:miter;stroke-opacity:1" /></svg>