<?xml version="1.0" encoding="UTF-8" standalone="no"?>
<svg
   xmlns:ns="http://creativecommons.org/"
   xmlns:dc="http://purl.org/dc/elements/1.1/"
   xmlns:cc="http://creativecommons.org/ns#"
   xmlns:rdf="http://www.w3.org/1999/02/22-rdf-syntax-ns#"
   xmlns:svg="http://www.w3.org/2000/svg"
   xmlns="http://www.w3.org/2000/svg"
   xmlns:sodipodi="http://sodipodi.sourceforge.net/DTD/sodipodi-0.dtd"
   xmlns:inkscape="http://www.inkscape.org/namespaces/inkscape"
   id="svg11"
   sodipodi:docname="robotbody.svg"
   inkscape:version="0.92.1 r15371"
   version="1.1">
  <metadata
     id="metadata17">
    <rdf:RDF>
      <ns:Work
         rdf:about="">
        <dc:format>image/svg+xml</dc:format>
        <dc:type
           rdf:resource="http://purl.org/dc/dcmitype/StillImage" />
      </ns:Work>
      <cc:Work
         rdf:about="">
        <dc:format>image/svg+xml</dc:format>
        <dc:type
           rdf:resource="http://purl.org/dc/dcmitype/StillImage" />
        <dc:title />
      </cc:Work>
    </rdf:RDF>
  </metadata>
  <defs
     id="defs15" />
  <sodipodi:namedview
     pagecolor="#ffffff"
     bordercolor="#666666"
     borderopacity="1"
     objecttolerance="10"
     gridtolerance="10"
     guidetolerance="10"
     inkscape:pageopacity="0"
     inkscape:pageshadow="2"
     inkscape:window-width="1920"
     inkscape:window-height="1051"
     id="namedview13"
     showgrid="false"
     inkscape:zoom="1.8101934"
     inkscape:cx="-27.535181"
     inkscape:cy="-9.87111"
     inkscape:window-x="-9"
     inkscape:window-y="-9"
     inkscape:window-maximized="1"
     inkscape:current-layer="svg11"
     showguides="true"
     inkscape:guide-bbox="true"
     inkscape:snap-center="true"
     inkscape:snap-page="true"
     inkscape:snap-global="false">
    <sodipodi:guide
       position="150.55087,314.4417"
       orientation="1,0"
       id="guide863"
       inkscape:locked="false" />
    <sodipodi:guide
       position="150,150"
       orientation="0,1"
       id="guide867"
       inkscape:locked="false" />
  </sodipodi:namedview>
  <path
     style="fill:#000000;stroke:#000000;stroke-width:0.20906508px;stroke-linecap:butt;stroke-linejoin:miter;stroke-opacity:1"
     d="m 29.983965,38.613376 c -6.261017,7.557015 -5.833647,20.219335 1.934256,26.593085 5.748782,4.668418 14.246746,5.622716 20.926292,2.490066 1.992706,-1.858304 4.456029,-2.502164 7.026749,-1.930932 3.965837,-1.450166 0.953604,-5.80559 0.979714,-8.60109 0.371388,-5.09375 0.327002,-10.24522 -0.457142,-15.304122 2.478305,-1.509373 2.149295,-7.486756 -1.517342,-5.513324 -2.345068,1.423511 -3.804439,-1.191142 -5.629186,-2.064106 -7.485536,-3.896708 -17.935845,-2.525205 -23.263341,4.330423 z"
     id="path34"
     inkscape:connector-curvature="0" />
  <path
     style="fill:#000000;stroke:#000000;stroke-width:0.20906508px;stroke-linecap:butt;stroke-linejoin:miter;stroke-opacity:1"
     d="m 62.245059,38.821618 c 3.85943,-1.754665 7.74281,-3.685252 11.99149,-4.264848 2.28577,-1.544697 6.38057,0.179309 5.6025,3.24419 -0.40566,3.280867 4.60876,0.386775 4.68942,-1.595639 0.72917,-3.202929 -2.11643,-5.848041 -5.21691,-5.581971 -6.51363,-0.970872 -13.83417,-0.266618 -18.951581,4.278546 -0.89113,0.572888 -0.992768,0.99721 -1.74774,1.801273"
     id="path32"
     inkscape:connector-curvature="0" />
  <path
     style="fill:#000000;stroke:#000000;stroke-width:0.20906508px;stroke-linecap:butt;stroke-linejoin:miter;stroke-opacity:1"
     d="m 61.947749,62.179873 c 2.26178,1.380728 2.0736,7.456058 -1.305487,4.816968 -0.572794,-0.485524 -1.049664,-1.26263 -1.86486,-1.33746"
     id="path11"
     inkscape:connector-curvature="0" />
</svg>
